      <svg
        width="47"
        height="47"
        viewBox="0 0 47 47"
        fill="none"
        xmlns="http://www.w3.org/2000/svg"
      >
        <path
          d="M25.5687 23.4998L35.4814 33.4125C36.0527 33.9838 36.0527 34.9101 35.4814 35.4814C34.9101 36.0527 33.9838 36.0527 33.4125 35.4814L23.4998 25.5687L13.5872 35.4814C13.0159 36.0527 12.0896 36.0527 11.5183 35.4814C10.947 34.9101 10.947 33.9838 11.5183 33.4125L21.431 23.4998L11.5183 13.5872C10.947 13.0159 10.947 12.0896 11.5183 11.5183C12.0896 10.947 13.0159 10.947 13.5872 11.5183L23.4998 21.431L33.4125 11.5183C33.9838 10.947 34.9101 10.947 35.4814 11.5183C36.0527 12.0896 36.0527 13.0159 35.4814 13.5872L25.5687 23.4998Z"
          fill="#2D2D2D"
        />
      </svg>