<svg width="109" height="109" viewBox="0 0 109 109" fill="none" xmlns="http://www.w3.org/2000/svg">
<path d="M21.5732 85.1556C21.5732 86.4098 22.5899 87.4264 23.8441 87.4264H85.1566C86.4107 87.4264 87.4274 86.4098 87.4274 85.1556V59.041C87.4274 57.1598 88.9524 55.6348 90.8337 55.6348C92.7149 55.6348 94.2399 57.1598 94.2399 59.041V86.291C94.2399 90.6598 90.6608 94.2389 86.292 94.2389H22.7087C18.3399 94.2389 14.7607 90.6598 14.7607 86.291V59.041C14.7607 57.1598 16.2858 55.6348 18.167 55.6348C20.0482 55.6348 21.5732 57.1598 21.5732 59.041V85.1556Z" fill="white"/>
<path d="M54.5003 14.7598C56.3815 14.7598 57.9066 16.2848 57.9066 18.166V60.2759L68.4013 49.8218C69.7287 48.4995 71.876 48.5016 73.2008 49.8264C74.5275 51.1531 74.5275 53.304 73.2008 54.6306L57.7118 70.1197C55.9381 71.8933 53.0625 71.8933 51.2889 70.1197L35.7998 54.6306C34.4732 53.304 34.4732 51.1531 35.7998 49.8264C37.1247 48.5016 39.272 48.4995 40.5994 49.8218L51.0941 60.2759V18.166C51.0941 16.2848 52.6191 14.7598 54.5003 14.7598Z" fill="white"/>
</svg>
